<?xml version="1.0" encoding="utf-8"?>
<svg version="1.0" width="195.000000pt" height="94.000000pt" viewBox="0 0 195.000000 94.000000" preserveAspectRatio="xMidYMid meet" xmlns="http://www.w3.org/2000/svg">
  <g transform="matrix(0.102809, 0, 0, -0.102809, -4.157484, 94.749504)" fill="#000000" stroke="none" style="">
    <path d="M 948.092 890 C 804.092 864 692.092 803 593.092 697 C 525.092 624 462.092 506 439.092 410 C 428.092 362 424.092 220 432.092 125 L 435.092 95 L 241.092 95 C 39.092 95 20.092 91 60.092 55 C 79.092 37 113.092 37 738.092 36 L 1395.092 35 L 1437.092 57 C 1511.092 97 1524.092 134 1493.092 219 C 1473.092 276 1481.092 318 1513.092 325 C 1530.092 328 1678.092 334 1918.092 340 C 1924.092 340 1930.092 347 1930.092 356 C 1930.092 366 1924.092 370 1916.092 367 C 1909.092 364 1847.092 360 1780.092 359 L 1657.092 357 L 1626.092 451 C 1541.092 710 1330.092 879 1071.092 894 C 1029.092 897 974.092 895 948.092 890 Z M 1245.092 841 C 1435.092 767 1602.092 573 1626.092 396 L 1632.092 354 L 1514.092 336 C 1383.092 317 1281.092 294 1147.092 253 C 1099.092 239 1058.092 229 1056.092 231 C 1050.092 237 1047.092 261 1049.092 292 C 1050.092 312 1054.092 318 1065.092 314 C 1089.092 305 1150.092 319 1150.092 334 C 1150.092 342 1157.092 353 1166.092 361 C 1176.092 369 1179.092 381 1174.092 399 C 1171.092 413 1167.092 431 1167.092 438 C 1167.092 444 1164.092 450 1161.092 450 C 1157.092 450 1156.092 468 1158.092 490 C 1161.092 522 1159.092 530 1146.092 530 C 1137.092 530 1130.092 534 1130.092 538 C 1130.092 543 1121.092 556 1109.092 568 C 1095.092 584 1084.092 588 1073.092 581 C 1063.092 576 1045.092 576 1028.092 582 C 1004.092 591 994.092 588 965.092 565 C 935.092 543 929.092 541 924.092 555 C 914.092 580 883.092 592 861.092 580 C 848.092 574 839.092 573 835.092 580 C 832.092 585 823.092 587 816.092 584 C 808.092 581 799.092 583 796.092 589 C 786.092 604 708.092 561 714.092 544 C 717.092 536 715.092 530 710.092 530 C 704.092 530 700.092 523 700.092 515 C 700.092 507 691.092 500 680.092 500 C 663.092 500 661.092 496 666.092 473 C 674.092 439 674.092 440 665.092 413 C 661.092 401 649.092 388 639.092 385 C 629.092 381 621.092 376 621.092 372 C 624.092 353 619.092 340 608.092 340 C 600.092 340 595.092 326 596.092 302 C 596.092 282 593.092 261 590.092 255 C 567.092 222 617.092 172 661.092 183 C 674.092 187 680.092 183 682.092 169 C 682.092 159 683.092 145 684.092 138 C 685.092 121 596.092 100 523.092 100 C 463.092 100 460.092 101 453.092 128 C 448.092 143 445.092 209 446.092 275 C 447.092 381 450.092 404 475.092 470 C 533.092 625 633.092 742 767.092 813 C 868.092 866 935.092 880 1060.092 876 C 1148.092 873 1178.092 867 1245.092 841 Z M 1028.092 278 C 1029.092 254 1026.092 230 1022.092 224 C 1015.092 212 878.092 170 848.092 170 C 836.092 170 832.092 179 833.092 205 L 834.092 240 L 879.092 236 C 923.092 232 970.092 250 970.092 272 C 970.092 282 1010.092 319 1021.092 320 C 1024.092 320 1027.092 301 1028.092 278 Z M 808.092 201 C 810.092 152 810.092 152 772.092 146 C 752.092 142 727.092 137 718.092 134 C 704.092 130 700.092 135 700.092 154 C 700.092 176 704.092 180 730.092 180 C 760.092 180 800.092 212 800.092 237 C 800.092 244 802.092 250 804.092 250 C 806.092 250 808.092 228 808.092 201 Z" style="fill: rgb(53, 80, 1);"/>
  </g>
</svg>